Coordinates
version=1
nRows=4
nColumns=60
inDegrees=yes

Units are S.I. units (second, meters, Newtons, ...)
If the header above contains a line with 'inDegrees', this indicates whether rotational values are in degrees (yes) or radians (no).

endheader
time	pelvis_tilt	pelvis_list	pelvis_rotation	pelvis_tx	pelvis_ty	pelvis_tz	hip_flexion_r	hip_adduction_r	hip_rotation_r	knee_angle_r_beta	knee_angle_r	ankle_angle_r	subtalar_angle_r	mtp_angle_r	hip_flexion_l	hip_adduction_l	hip_rotation_l	knee_angle_l_beta	knee_angle_l	ankle_angle_l	subtalar_angle_l	mtp_angle_l	L5_S1_Flex_Ext	L5_S1_Lat_Bending	L5_S1_axial_rotation	L4_L5_Flex_Ext	L4_L5_Lat_Bending	L4_L5_axial_rotation	L3_L4_Flex_Ext	L3_L4_Lat_Bending	L3_L4_axial_rotation	L2_L3_Flex_Ext	L2_L3_Lat_Bending	L2_L3_axial_rotation	L1_L2_Flex_Ext	L1_L2_Lat_Bending	L1_L2_axial_rotation	L1_T12_Flex_Ext	L1_T12_Lat_Bending	L1_T12_axial_rotation	Abs_r3	Abs_r2	Abs_r1	Abs_t1	Abs_t2	arm_flex_r	arm_add_r	arm_rot_r	elbow_flex_r	pro_sup_r	wrist_flex_r	wrist_dev_r	arm_flex_l	arm_add_l	arm_rot_l	elbow_flex_l	pro_sup_l	wrist_flex_l	wrist_dev_l
     21.20000000	      0.43677626	      9.71839712	     92.57288419	      0.39795165	      0.94134115	      0.29532000	     -0.78025535	     -4.72076242	     -0.13769089	      0.22401684	    -12.83521951	      7.51606829	      0.00000000	      0.00000000	      0.38869434	     -6.03149285	     -0.89057964	      0.21914233	    -12.55593043	      8.26637137	      0.00000000	      0.00000000	     -7.17499143	      0.11277012	     -0.13738249	    -13.32467658	      0.14998426	     -0.14596889	    -11.78779342	      0.27418927	     -0.14596889	     -8.20029770	      0.27418927	     -0.12020968	     -6.66269704	      0.22996083	     -0.11162327	     -4.09979010	      0.17468092	     -0.10303687	    -51.25024627	      1.27567816	     -0.76408018	      0.00000000	      0.00000000	      9.06347065	    -26.13922114	     -0.12051322	    100.52949194	     74.72127825	     -0.35650873	     19.77872639	     11.73427496	    -25.44880066	      3.36561431	     96.20859269	     67.49651602	      1.41216700	     18.82707241
     21.21000000	      0.43583630	      9.59159807	     92.55450211	      0.39785290	      0.94105061	      0.29795373	     -0.46318800	     -4.74209799	     -0.11400683	      0.22339712	    -12.79971231	      7.49992437	      0.00000000	      0.00000000	      0.69994737	     -6.00833797	     -0.86452782	      0.21866440	    -12.52854699	      8.24142122	      0.00000000	      0.00000000	     -7.26164409	      0.11625641	     -0.12799686	    -13.48559925	      0.15462102	     -0.13599667	    -11.93015508	      0.28266583	     -0.13599667	     -8.29933303	      0.28266583	     -0.11199726	     -6.74316271	      0.23707006	     -0.10399745	     -4.14930344	      0.18008117	     -0.09599765	    -51.86919760	      1.31511572	     -0.71188015	      0.00000000	      0.00000000	      9.10785819	    -26.16594844	     -0.10725624	    100.32060053	     74.73292991	     -0.35985325	     19.73964326	     11.83654035	    -25.45381612	      3.38207330	     96.14620698	     67.52387461	      1.40933971	     18.79356669
     21.22000000	      0.45445442	      9.52575777	     92.52374529	      0.39775796	      0.94089369	      0.30074106	     -0.11297385	     -4.73961004	      0.02120345	      0.22618304	    -12.95933339	      7.30176352	      0.00000000	      0.00000000	      1.04962274	     -6.01328568	     -0.74662441	      0.22201002	    -12.72023742	      8.01659929	      0.00000000	      0.00000000	     -7.36287834	      0.11970833	     -0.10887174	    -13.67360136	      0.15921208	     -0.11567622	    -12.09647282	      0.29105883	     -0.11567622	     -8.41503365	      0.29105883	     -0.09526277	     -6.83716882	      0.24410923	     -0.08845829	     -4.20714868	      0.18542820	     -0.08165380	    -52.59230367	      1.35416457	     -0.60551194	      0.00000000	      0.00000000	      9.28195758	    -26.22198256	     -0.03862331	     99.93655547	     74.79575444	     -0.35522704	     19.55442955	     12.05665374	    -25.50129146	      3.57381334	     96.09647519	     67.66464958	      1.41888412	     18.65436716
     21.23000000	      0.44743652	      9.35037123	     92.52119420	      0.39758286	      0.94055161	      0.30335237	      0.24564311	     -4.77782360	      0.02714769	      0.22519348	    -12.90263606	      7.28262541	      0.00000000	      0.00000000	      1.39768244	     -5.97494256	     -0.75079722	      0.22127681	    -12.67822745	      7.98893162	      0.00000000	      0.00000000	     -7.45098494	      0.12452314	     -0.10438010	    -13.83722413	      0.16561577	     -0.11090385	    -12.24122315	      0.30276555	     -0.11090385	     -8.51573068	      0.30276555	     -0.09133259	     -6.91898461	      0.25392758	     -0.08480883	     -4.25749279	      0.19288634	     -0.07828507	    -53.22164031	      1.40863062	     -0.58053079	      0.00000000	      0.00000000	      9.39434738	    -26.24935091	     -0.03308401	     99.76032610	     74.81041262	     -0.35229991	     19.50548550	     12.19426745	    -25.52945545	      3.59740664	     96.00584983	     67.70481614	      1.42222495	     18.61524189
